<svg xmlns="http://www.w3.org/2000/svg" width="16.281" height="15.196" viewBox="0 0 16.281 15.196">
  <g id="https:_www.flaticon.com_free-icon_bathtub_259973" data-name="https://www.flaticon.com/free-icon/bathtub_259973" transform="translate(0)">
    <g id="Group_8" data-name="Group 8" transform="translate(0 0)">
      <g id="Group_7" data-name="Group 7">
        <path id="Path_42" data-name="Path 42" d="M14.467,24.208H14.2v-5.7a2.432,2.432,0,0,0-2.442-2.442,2.176,2.176,0,0,0-2.162,2.2A1.341,1.341,0,0,0,8.5,19.595a.256.256,0,0,0,.271.271H10.94a.256.256,0,0,0,.271-.271,1.341,1.341,0,0,0-1.074-1.328,1.642,1.642,0,0,1,1.616-1.657,1.888,1.888,0,0,1,1.9,1.9v5.7H5.486a1.341,1.341,0,0,0-1.331-1.085A1.417,1.417,0,0,0,3.07,22.58a1.342,1.342,0,0,0-1.194.733,1.612,1.612,0,0,0-.706-.19A1.341,1.341,0,0,0-.16,24.208H-.186A.8.8,0,0,0-1,25.022a.8.8,0,0,0,.814.814H.14l.732,2.9a1.914,1.914,0,0,0,1.845,1.438h.217l-.353.706a.239.239,0,0,0,.109.353.163.163,0,0,0,.109.027.285.285,0,0,0,.244-.136l.475-.95h7.53l.461.923a.261.261,0,0,0,.244.163c.054,0,.081,0,.109-.054a.286.286,0,0,0,.109-.353l-.34-.68a1.921,1.921,0,0,0,1.778-1.41l.739-2.931h.319a.814.814,0,1,0,0-1.628Zm-3.826-4.884H9.094a.825.825,0,0,1,.787-.543A.79.79,0,0,1,10.641,19.323Zm-9.47,4.342a.912.912,0,0,1,.651.3.246.246,0,0,0,.271.081.263.263,0,0,0,.19-.217.84.84,0,0,1,.814-.706.758.758,0,0,1,.706.407.273.273,0,0,0,.3.136h.081a.79.79,0,0,1,.76.543H.411A.79.79,0,0,1,1.171,23.665ZM12.921,28.6a1.392,1.392,0,0,1-1.33,1.031H2.745A1.392,1.392,0,0,1,1.415,28.6L.71,25.836H13.572Zm1.547-3.311H-.186a.256.256,0,0,1-.271-.271.256.256,0,0,1,.271-.271H14.467a.271.271,0,0,1,0,.543Z" transform="translate(1 -16.067)" fill="#001d38"/>
        <path id="Path_43" data-name="Path 43" d="M297.938,153.278a.256.256,0,0,0,.271-.271v-.136a.271.271,0,0,0-.543,0v.136A.256.256,0,0,0,297.938,153.278Z" transform="translate(-288.17 -148.258)" fill="#001d38"/>
        <path id="Path_44" data-name="Path 44" d="M297.938,187.575a.272.272,0,0,0,.271-.271v-.3a.271.271,0,0,0-.543,0v.3A.256.256,0,0,0,297.938,187.575Z" transform="translate(-288.17 -181.307)" fill="#001d38"/>
        <path id="Path_45" data-name="Path 45" d="M297.938,225.812a.256.256,0,0,0,.271-.271v-.136a.271.271,0,1,0-.543,0v.136A.256.256,0,0,0,297.938,225.812Z" transform="translate(-288.17 -218.486)" fill="#001d38"/>
        <path id="Path_46" data-name="Path 46" d="M332.071,153.278a.256.256,0,0,0,.271-.271v-.136a.271.271,0,0,0-.543,0v.136A.256.256,0,0,0,332.071,153.278Z" transform="translate(-321.217 -148.258)" fill="#001d38"/>
        <path id="Path_47" data-name="Path 47" d="M331.8,187.3a.256.256,0,0,0,.271.271.272.272,0,0,0,.271-.271V187a.271.271,0,1,0-.543,0Z" transform="translate(-321.217 -181.306)" fill="#001d38"/>
        <path id="Path_48" data-name="Path 48" d="M331.8,225.54a.271.271,0,1,0,.543,0V225.4a.271.271,0,1,0-.543,0Z" transform="translate(-321.217 -218.485)" fill="#001d38"/>
        <path id="Path_49" data-name="Path 49" d="M366.205,153.278a.256.256,0,0,0,.271-.271v-.136a.271.271,0,1,0-.543,0v.136A.256.256,0,0,0,366.205,153.278Z" transform="translate(-354.266 -148.258)" fill="#001d38"/>
        <path id="Path_50" data-name="Path 50" d="M365.933,187.3a.256.256,0,0,0,.271.271.272.272,0,0,0,.271-.271V187a.271.271,0,1,0-.543,0v.3Z" transform="translate(-354.265 -181.306)" fill="#001d38"/>
        <path id="Path_51" data-name="Path 51" d="M365.933,225.54a.271.271,0,0,0,.543,0V225.4a.271.271,0,0,0-.543,0Z" transform="translate(-354.265 -218.485)" fill="#001d38"/>
      </g>
    </g>
  </g>
</svg>
