<svg xmlns="http://www.w3.org/2000/svg" width="17.534" height="15.196" viewBox="0 0 17.534 15.196">
  <g id="https:_www.flaticon.com_free-icon_bed_895474" data-name="https://www.flaticon.com/free-icon/bed_895474" transform="translate(0)">
    <g id="Group_10" data-name="Group 10" transform="translate(0 0)">
      <g id="Group_9" data-name="Group 9">
        <path id="Path_52" data-name="Path 52" d="M17.241,40.767h-.292V39.89a1.461,1.461,0,0,0-.877-1.337V34.046a.292.292,0,0,0-.175-.268,1.157,1.157,0,0,0,.175-.609,1.169,1.169,0,1,0-2.338,0,1.157,1.157,0,0,0,.162.584H3.636a1.157,1.157,0,0,0,.162-.584,1.169,1.169,0,1,0-2.338,0,1.157,1.157,0,0,0,.175.609.292.292,0,0,0-.175.268v4.507A1.461,1.461,0,0,0,.584,39.89v.877H.292A.292.292,0,0,0,0,41.059V45.15a.292.292,0,0,0,.292.292H.584V46.9a.292.292,0,0,0,.292.292H2.046a.292.292,0,0,0,.292-.292V45.443H15.2V46.9a.292.292,0,0,0,.292.292h1.169a.292.292,0,0,0,.292-.292V45.443h.292a.292.292,0,0,0,.292-.292V41.059A.292.292,0,0,0,17.241,40.767ZM14.9,32.584a.584.584,0,1,1-.584.584A.584.584,0,0,1,14.9,32.584Zm-12.274,0a.584.584,0,1,1-.584.584A.584.584,0,0,1,2.63,32.584Zm-.584,1.753H15.488v4.091H14.312a1.446,1.446,0,0,0,.3-.877v-.584a1.463,1.463,0,0,0-1.461-1.461H10.812a1.463,1.463,0,0,0-1.461,1.461v.584a1.446,1.446,0,0,0,.3.877H7.883a1.446,1.446,0,0,0,.3-.877v-.584a1.463,1.463,0,0,0-1.461-1.461H4.383a1.463,1.463,0,0,0-1.461,1.461v.584a1.446,1.446,0,0,0,.3.877H2.046Zm11.981,2.63v.584a.877.877,0,0,1-.877.877H10.812a.877.877,0,0,1-.877-.877v-.584a.877.877,0,0,1,.877-.877H13.15A.877.877,0,0,1,14.027,36.968Zm-6.429,0v.584a.877.877,0,0,1-.877.877H4.383a.877.877,0,0,1-.877-.877v-.584a.877.877,0,0,1,.877-.877H6.721A.877.877,0,0,1,7.6,36.968ZM1.169,39.89a.877.877,0,0,1,.877-.877H15.488a.877.877,0,0,1,.877.877v.877H1.169Zm.584,6.721H1.169V45.443h.584Zm14.611,0H15.78V45.443h.584Zm.584-1.753H.584V41.351H16.949Z" transform="translate(0 -32)" fill="#001d38"/>
      </g>
    </g>
    <g id="Group_12" data-name="Group 12" transform="translate(1.169 11.689)">
      <g id="Group_11" data-name="Group 11">
        <path id="Path_53" data-name="Path 53" d="M33.461,352H32.292a.292.292,0,0,0,0,.584h1.169a.292.292,0,0,0,0-.584Z" transform="translate(-32 -352)" fill="#001d38"/>
      </g>
    </g>
    <g id="Group_14" data-name="Group 14" transform="translate(3.507 11.689)">
      <g id="Group_13" data-name="Group 13">
        <path id="Path_54" data-name="Path 54" d="M108.566,352H96.292a.292.292,0,0,0,0,.584h12.274a.292.292,0,0,0,0-.584Z" transform="translate(-96 -352)" fill="#001d38"/>
      </g>
    </g>
  </g>
</svg>
