<svg xmlns="http://www.w3.org/2000/svg" width="25.569" height="22.16" viewBox="0 0 25.569 22.16">
  <g id="https:_www.flaticon.com_free-icon_bed_895474" data-name="https://www.flaticon.com/free-icon/bed_895474" transform="translate(0)">
    <g id="Group_10" data-name="Group 10" transform="translate(0 0)">
      <g id="Group_9" data-name="Group 9">
        <path id="Path_52" data-name="Path 52" d="M25.143,44.785h-.426V43.506a2.131,2.131,0,0,0-1.278-1.95V34.983a.426.426,0,0,0-.256-.39,1.687,1.687,0,0,0,.256-.888,1.7,1.7,0,1,0-3.409,0,1.687,1.687,0,0,0,.237.852H5.3A1.687,1.687,0,0,0,5.54,33.7a1.7,1.7,0,1,0-3.409,0,1.687,1.687,0,0,0,.256.888.426.426,0,0,0-.256.39v6.573a2.131,2.131,0,0,0-1.278,1.95v1.278H.426A.426.426,0,0,0,0,45.211v5.966a.426.426,0,0,0,.426.426H.852v2.131a.426.426,0,0,0,.426.426h1.7a.426.426,0,0,0,.426-.426V51.6H22.16v2.131a.426.426,0,0,0,.426.426h1.7a.426.426,0,0,0,.426-.426V51.6h.426a.426.426,0,0,0,.426-.426V45.211A.426.426,0,0,0,25.143,44.785ZM21.734,32.852a.852.852,0,1,1-.852.852A.852.852,0,0,1,21.734,32.852Zm-17.9,0a.852.852,0,1,1-.852.852A.852.852,0,0,1,3.835,32.852Zm-.852,2.557h19.6v5.966H20.87a2.109,2.109,0,0,0,.437-1.278v-.852a2.133,2.133,0,0,0-2.131-2.131H15.768a2.133,2.133,0,0,0-2.131,2.131V40.1a2.109,2.109,0,0,0,.437,1.278H11.5a2.109,2.109,0,0,0,.437-1.278v-.852A2.133,2.133,0,0,0,9.8,37.114H6.392a2.133,2.133,0,0,0-2.131,2.131V40.1A2.109,2.109,0,0,0,4.7,41.375H2.983Zm17.472,3.835V40.1a1.278,1.278,0,0,1-1.278,1.278H15.768A1.278,1.278,0,0,1,14.489,40.1v-.852a1.278,1.278,0,0,1,1.278-1.278h3.409A1.278,1.278,0,0,1,20.455,39.245Zm-9.375,0V40.1A1.278,1.278,0,0,1,9.8,41.375H6.392A1.278,1.278,0,0,1,5.114,40.1v-.852a1.278,1.278,0,0,1,1.278-1.278H9.8A1.278,1.278,0,0,1,11.08,39.245ZM1.7,43.506a1.278,1.278,0,0,1,1.278-1.278h19.6a1.278,1.278,0,0,1,1.278,1.278v1.278H1.7Zm.852,9.8H1.7V51.6h.852Zm21.308,0h-.852V51.6h.852Zm.852-2.557H.852V45.637H24.717Z" transform="translate(0 -32)" fill="#fdae5c"/>
      </g>
    </g>
    <g id="Group_12" data-name="Group 12" transform="translate(1.705 17.046)">
      <g id="Group_11" data-name="Group 11">
        <path id="Path_53" data-name="Path 53" d="M34.131,352h-1.7a.426.426,0,1,0,0,.852h1.7a.426.426,0,1,0,0-.852Z" transform="translate(-32 -352)" fill="#fdae5c"/>
      </g>
    </g>
    <g id="Group_14" data-name="Group 14" transform="translate(5.114 17.046)">
      <g id="Group_13" data-name="Group 13">
        <path id="Path_54" data-name="Path 54" d="M114.325,352h-17.9a.426.426,0,1,0,0,.852h17.9a.426.426,0,1,0,0-.852Z" transform="translate(-96 -352)" fill="#fdae5c"/>
      </g>
    </g>
  </g>
</svg>
