<svg xmlns="http://www.w3.org/2000/svg" width="23.738" height="22.156" viewBox="0 0 23.738 22.156">
  <g id="https:_www.flaticon.com_free-icon_bathtub_259973" data-name="https://www.flaticon.com/free-icon/bathtub_259973" transform="translate(0)">
    <g id="Group_8" data-name="Group 8" transform="translate(0 0)">
      <g id="Group_7" data-name="Group 7">
        <path id="Path_42" data-name="Path 42" d="M21.551,27.936h-.4V19.628A3.546,3.546,0,0,0,17.6,16.067a3.172,3.172,0,0,0-3.152,3.2,1.955,1.955,0,0,0-1.6,1.942.374.374,0,0,0,.4.4h3.165a.374.374,0,0,0,.4-.4,1.955,1.955,0,0,0-1.566-1.936A2.394,2.394,0,0,1,17.6,16.858a2.752,2.752,0,0,1,2.769,2.769v8.308H8.457a1.955,1.955,0,0,0-1.94-1.583,2.065,2.065,0,0,0-1.583-.791,1.956,1.956,0,0,0-1.741,1.068,2.35,2.35,0,0,0-1.029-.277,1.955,1.955,0,0,0-1.94,1.583H.187a1.187,1.187,0,0,0,0,2.374H.662L1.73,34.543a2.791,2.791,0,0,0,2.69,2.1h.317l-.514,1.029a.349.349,0,0,0,.158.514.238.238,0,0,0,.158.04.416.416,0,0,0,.356-.2l.692-1.385H16.566l.673,1.345a.38.38,0,0,0,.356.237c.079,0,.119,0,.158-.079a.417.417,0,0,0,.158-.514l-.5-.991a2.8,2.8,0,0,0,2.592-2.055l1.077-4.273h.465a1.187,1.187,0,1,0,0-2.374Zm-5.579-7.122H13.718a1.2,1.2,0,0,1,1.147-.791A1.152,1.152,0,0,1,15.973,20.815ZM2.165,27.145a1.329,1.329,0,0,1,.95.435.358.358,0,0,0,.4.119.383.383,0,0,0,.277-.317,1.225,1.225,0,0,1,1.187-1.029A1.106,1.106,0,0,1,6,26.947a.4.4,0,0,0,.435.2h.119a1.152,1.152,0,0,1,1.108.791H1.057A1.152,1.152,0,0,1,2.165,27.145Zm17.131,7.2a2.03,2.03,0,0,1-1.939,1.5H4.46a2.03,2.03,0,0,1-1.939-1.5L1.493,30.31H20.246Zm2.255-4.827H.187a.4.4,0,0,1,0-.791H21.551a.4.4,0,0,1,0,.791Z" transform="translate(1 -16.067)" fill="#fdae5c"/>
        <path id="Path_43" data-name="Path 43" d="M298.063,153.589a.374.374,0,0,0,.4-.4V153a.4.4,0,0,0-.791,0v.2A.374.374,0,0,0,298.063,153.589Z" transform="translate(-283.82 -146.27)" fill="#fdae5c"/>
        <path id="Path_44" data-name="Path 44" d="M298.063,187.96a.4.4,0,0,0,.4-.4v-.435a.4.4,0,1,0-.791,0v.435A.374.374,0,0,0,298.063,187.96Z" transform="translate(-283.82 -178.821)" fill="#fdae5c"/>
        <path id="Path_45" data-name="Path 45" d="M298.063,226.123a.374.374,0,0,0,.4-.4v-.2a.4.4,0,1,0-.791,0v.2A.374.374,0,0,0,298.063,226.123Z" transform="translate(-283.82 -215.441)" fill="#fdae5c"/>
        <path id="Path_46" data-name="Path 46" d="M332.2,153.589a.374.374,0,0,0,.4-.4V153a.4.4,0,0,0-.791,0v.2A.374.374,0,0,0,332.2,153.589Z" transform="translate(-316.37 -146.27)" fill="#fdae5c"/>
        <path id="Path_47" data-name="Path 47" d="M331.8,187.564a.374.374,0,0,0,.4.4.4.4,0,0,0,.4-.4v-.435a.4.4,0,1,0-.791,0Z" transform="translate(-316.37 -178.82)" fill="#fdae5c"/>
        <path id="Path_48" data-name="Path 48" d="M331.8,225.726a.4.4,0,0,0,.791,0v-.2a.4.4,0,1,0-.791,0Z" transform="translate(-316.37 -215.44)" fill="#fdae5c"/>
        <path id="Path_49" data-name="Path 49" d="M366.33,153.589a.374.374,0,0,0,.4-.4V153a.4.4,0,1,0-.791,0v.2A.374.374,0,0,0,366.33,153.589Z" transform="translate(-348.922 -146.27)" fill="#fdae5c"/>
        <path id="Path_50" data-name="Path 50" d="M365.933,187.564a.374.374,0,0,0,.4.4.4.4,0,0,0,.4-.4v-.435a.4.4,0,1,0-.791,0v.435Z" transform="translate(-348.921 -178.82)" fill="#fdae5c"/>
        <path id="Path_51" data-name="Path 51" d="M365.933,225.726a.4.4,0,0,0,.791,0v-.2a.4.4,0,0,0-.791,0Z" transform="translate(-348.921 -215.44)" fill="#fdae5c"/>
      </g>
    </g>
  </g>
</svg>
