<svg xmlns="http://www.w3.org/2000/svg" width="23.312" height="22.127" viewBox="0 0 23.312 22.127">
  <g id="https:_www.flaticon.com_free-icon_3d_1077703" data-name="https://www.flaticon.com/free-icon/3d_1077703" transform="translate(0)">
    <path id="Path_38" data-name="Path 38" d="M342.455,346.5a.455.455,0,1,0,.455.455A.455.455,0,0,0,342.455,346.5Zm0,0" transform="translate(-326.429 -330.743)" fill="#fdae5c"/>
    <path id="Path_39" data-name="Path 39" d="M246.911,160.955a.455.455,0,1,0-.455.455A.455.455,0,0,0,246.911,160.955Zm0,0" transform="translate(-234.8 -153.215)" fill="#fdae5c"/>
    <path id="Path_40" data-name="Path 40" d="M150.455,347.407a.455.455,0,1,0-.455-.455A.456.456,0,0,0,150.455,347.407Zm0,0" transform="translate(-143.171 -330.743)" fill="#fdae5c"/>
    <path id="Path_41" data-name="Path 41" d="M23.04,19.327l-2.461-1.094V8.24a.458.458,0,0,0-.28-.42L12.11,4.3V.955a.455.455,0,1,0-.911,0V4.3L3.011,7.82a.458.458,0,0,0-.28.42v9.994L.27,19.327a.455.455,0,0,0,.37.832l2.55-1.133,8.286,3.564a.462.462,0,0,0,.36,0l8.285-3.564,2.55,1.133a.455.455,0,0,0,.37-.832ZM11.2,5.289v1.13a.455.455,0,1,0,.911,0V5.289L18.971,8.24l-7.316,3.147L4.339,8.24ZM6.036,17.263a.456.456,0,0,0-.6-.231l-1.793.8v-8.9L11.2,12.182v9.3L4.323,18.523l1.482-.658A.456.456,0,0,0,6.036,17.263Zm6.074,4.217v-9.3l7.558-3.251v8.9l-1.793-.8a.455.455,0,0,0-.37.832l1.482.658Zm0,0" transform="translate(0.001 -0.5)" fill="#fdae5c"/>
  </g>
</svg>
