<svg xmlns="http://www.w3.org/2000/svg" width="9.345" height="13.342" viewBox="0 0 9.345 13.342">
  <g id="placeholder" transform="translate(-8.203)">
    <path id="Path_36" data-name="Path 36" d="M22.263,12a1.706,1.706,0,1,0,1.706,1.706A1.708,1.708,0,0,0,22.263,12Zm0,2.924a1.218,1.218,0,1,1,1.218-1.218A1.22,1.22,0,0,1,22.263,14.924Z" transform="translate(-9.344 -9.076)" fill="#919191"/>
    <path id="Path_37" data-name="Path 37" d="M16.179,1.369a4.672,4.672,0,0,0-6.608,0,5.322,5.322,0,0,0-.44,6.567l3.744,5.406,3.738-5.4A5.324,5.324,0,0,0,16.179,1.369Zm.039,6.29-3.343,4.827L9.527,7.651a4.809,4.809,0,0,1,.389-5.938,4.185,4.185,0,0,1,5.919,0A4.811,4.811,0,0,1,16.218,7.658Z" transform="translate(0 0)" fill="#919191"/>
  </g>
</svg>
