<svg xmlns="http://www.w3.org/2000/svg" width="16.009" height="15.196" viewBox="0 0 16.009 15.196">
  <g id="https:_www.flaticon.com_free-icon_3d_1077703" data-name="https://www.flaticon.com/free-icon/3d_1077703" transform="translate(0)">
    <path id="Path_38" data-name="Path 38" d="M342.313,346.5a.313.313,0,1,0,.313.313A.313.313,0,0,0,342.313,346.5Zm0,0" transform="translate(-331.306 -335.677)" fill="#001d38"/>
    <path id="Path_39" data-name="Path 39" d="M246.625,160.813a.313.313,0,1,0-.313.313A.313.313,0,0,0,246.625,160.813Zm0,0" transform="translate(-238.308 -155.497)" fill="#001d38"/>
    <path id="Path_40" data-name="Path 40" d="M150.313,347.121a.313.313,0,1,0-.313-.313A.313.313,0,0,0,150.313,347.121Zm0,0" transform="translate(-145.31 -335.677)" fill="#001d38"/>
    <path id="Path_41" data-name="Path 41" d="M15.823,13.43l-1.69-.751V5.816a.314.314,0,0,0-.192-.289L8.317,3.108V.813a.313.313,0,1,0-.625,0v2.3L2.068,5.527a.315.315,0,0,0-.192.289v6.863l-1.69.751A.313.313,0,0,0,.439,14l1.751-.778,5.69,2.447a.318.318,0,0,0,.247,0l5.69-2.447L15.569,14a.313.313,0,0,0,.254-.572ZM7.692,3.789v.776a.313.313,0,1,0,.625,0V3.789l4.712,2.027L8,7.977,2.98,5.816ZM4.145,12.013a.313.313,0,0,0-.413-.159L2.5,12.4V6.29L7.692,8.523v6.386L2.969,12.878l1.018-.452A.313.313,0,0,0,4.145,12.013Zm4.172,2.9V8.523l5.19-2.233V12.4l-1.232-.547a.313.313,0,0,0-.254.572l1.018.452Zm0,0" transform="translate(0.001 -0.5)" fill="#001d38"/>
  </g>
</svg>
